<svg xmlns="http://www.w3.org/2000/svg" width="32.799" height="38.328" viewBox="0 0 32.799 38.328">
  <defs>
    <style>
      .cls-1 {
        fill: #009444;
      }
    </style>
  </defs>
  <path id="Icon_ionic-ios-person" data-name="Icon ionic-ios-person" class="cls-1" d="M37.314,36.5c-.616-2.719-4.13-4.044-5.344-4.472a39.841,39.841,0,0,0-4.454-.855,4.526,4.526,0,0,1-2.061-.949c-.342-.41-.137-4.215-.137-4.215a12.682,12.682,0,0,0,.975-1.855,23.931,23.931,0,0,0,.718-3.24s.7,0,.949-1.231c.265-1.342.684-1.864.633-2.864-.051-.983-.59-.958-.59-.958a14.99,14.99,0,0,0,.581-4.386C28.662,7.963,25.909,4.5,20.924,4.5c-5.053,0-7.746,3.463-7.669,6.977a15.636,15.636,0,0,0,.573,4.386s-.539-.026-.59.958c-.051,1,.368,1.522.633,2.864.239,1.231.949,1.231.949,1.231a23.931,23.931,0,0,0,.718,3.24,12.682,12.682,0,0,0,.975,1.855s.205,3.8-.137,4.215a4.526,4.526,0,0,1-2.061.949,39.841,39.841,0,0,0-4.454.855c-1.214.427-4.728,1.753-5.344,4.472-.094.427,6.763,6.326,16.3,6.326S37.408,36.93,37.314,36.5Z" transform="translate(-4.516 -4.5)"/>
</svg>
